<?xml version="1.0" encoding="UTF-8" standalone="no"?>
<!-- Created with Inkscape (http://www.inkscape.org/) -->

<svg
   width="180"
   height="180"
   viewBox="0 0 180 180"
   version="1.1"
   id="svg1"
   inkscape:version="1.4.2 (f4327f4, 2025-05-13)"
   sodipodi:docname="drawing.svg"
   xml:space="preserve"
   inkscape:export-filename="icon-180.svg"
   inkscape:export-xdpi="96"
   inkscape:export-ydpi="96"
   xmlns:inkscape="http://www.inkscape.org/namespaces/inkscape"
   xmlns:sodipodi="http://sodipodi.sourceforge.net/DTD/sodipodi-0.dtd"
   xmlns:xlink="http://www.w3.org/1999/xlink"
   xmlns="http://www.w3.org/2000/svg"
   xmlns:svg="http://www.w3.org/2000/svg"><sodipodi:namedview
     id="namedview1"
     pagecolor="#ffffff"
     bordercolor="#cccccc"
     borderopacity="1"
     inkscape:showpageshadow="0"
     inkscape:pageopacity="1"
     inkscape:pagecheckerboard="false"
     inkscape:deskcolor="#d1d1d1"
     inkscape:document-units="px"
     inkscape:zoom="4.75"
     inkscape:cx="80.947368"
     inkscape:cy="76.315789"
     inkscape:window-width="1920"
     inkscape:window-height="1057"
     inkscape:window-x="1358"
     inkscape:window-y="-8"
     inkscape:window-maximized="1"
     inkscape:current-layer="layer1"
     showguides="true"><sodipodi:guide
       position="90,90"
       orientation="0,1"
       id="guide6"
       inkscape:locked="false"
       inkscape:label=""
       inkscape:color="rgb(0,134,229)" /><sodipodi:guide
       position="90,90"
       orientation="-1,0"
       id="guide7"
       inkscape:locked="false"
       inkscape:label=""
       inkscape:color="rgb(0,134,229)" /><sodipodi:guide
       position="0,180"
       orientation="0.70710678,0.70710678"
       id="guide8"
       inkscape:locked="false"
       inkscape:label=""
       inkscape:color="rgb(0,134,229)" /><sodipodi:guide
       position="180,180"
       orientation="-0.70710678,0.70710678"
       id="guide9"
       inkscape:locked="false"
       inkscape:label=""
       inkscape:color="rgb(0,134,229)" /></sodipodi:namedview><defs
     id="defs1"><inkscape:path-effect
       effect="powerclip"
       message=""
       id="path-effect39"
       is_visible="true"
       lpeversion="1"
       inverse="true"
       flatten="false"
       hide_clip="false" /><linearGradient
       id="swatch6"
       inkscape:swatch="solid"><stop
         style="stop-color:#000000;stop-opacity:1;"
         offset="0"
         id="stop6" /></linearGradient><linearGradient
       inkscape:collect="always"
       xlink:href="#swatch6"
       id="linearGradient6"
       x1="45.462376"
       y1="73.290504"
       x2="69.017063"
       y2="73.290504"
       gradientUnits="userSpaceOnUse" /><clipPath
       clipPathUnits="userSpaceOnUse"
       id="clipPath39"><g
         id="g39"
         style="display:none"><path
           id="path39"
           style="fill:#ffffff;fill-opacity:1;stroke:none;stroke-width:0;stroke-dasharray:none;stroke-opacity:1"
           d="M 136.20982,29.473885 V 54.104752 H 118.73678 V 29.894509 H 99.368222 V 54.104752 H 80.84272 V 31.367595 H 61.474165 V 54.104752 H 43.999319 V 31.790024 H 24.630764 V 54.104752 H 4.2097466 V 68.842834 H 24.630764 V 82.905752 H 4.2097466 V 97.642029 H 24.630764 V 112.00462 H 4.2097466 V 126.7427 H 24.630764 v 22.73174 H 43.999319 V 126.7427 h 17.474846 v 22.30931 H 80.84272 V 126.7427 h 18.525502 v 20.83623 H 118.73678 V 126.7427 h 17.47304 v 20.4156 h 19.36855 v -20.4156 h 21.47348 V 112.00462 H 155.57837 V 97.642029 h 21.47348 V 82.905752 H 155.57837 V 68.842834 h 21.47348 V 54.104752 H 155.57837 V 29.473885 Z M 43.999319,68.842834 H 61.474165 V 82.905752 H 43.999319 Z m 36.843401,0 H 99.368222 V 82.905752 H 80.84272 Z m 37.89406,0 h 17.47304 V 82.905752 H 118.73678 Z M 43.999319,97.642029 H 61.474165 V 112.00462 H 43.999319 Z m 36.843401,0 H 99.368222 V 112.00462 H 80.84272 Z m 37.89406,0 h 17.47304 v 14.362591 h -17.47304 z" /></g><path
         id="lpe_path-effect39"
         style="display:inline"
         class="powerclip"
         d="M 2.789474,33.736843 H 177.63158 V 146.89474 H 2.789474 Z M 136.20982,29.473885 V 54.104752 H 118.73678 V 29.894509 H 99.368222 V 54.104752 H 80.84272 V 31.367595 H 61.474165 V 54.104752 H 43.999319 V 31.790024 H 24.630764 V 54.104752 H 4.2097466 V 68.842834 H 24.630764 V 82.905752 H 4.2097466 V 97.642029 H 24.630764 V 112.00462 H 4.2097466 V 126.7427 H 24.630764 v 22.73174 H 43.999319 V 126.7427 h 17.474846 v 22.30931 H 80.84272 V 126.7427 h 18.525502 v 20.83623 H 118.73678 V 126.7427 h 17.47304 v 20.4156 h 19.36855 v -20.4156 h 21.47348 V 112.00462 H 155.57837 V 97.642029 h 21.47348 V 82.905752 H 155.57837 V 68.842834 h 21.47348 V 54.104752 H 155.57837 V 29.473885 Z M 43.999319,68.842834 V 82.905752 H 61.474165 V 68.842834 Z m 36.843401,0 V 82.905752 H 99.368222 V 68.842834 Z m 37.89406,0 v 14.062918 h 17.47304 V 68.842834 Z M 43.999319,97.642029 V 112.00462 H 61.474165 V 97.642029 Z m 36.843401,0 V 112.00462 H 99.368222 V 97.642029 Z m 37.89406,0 v 14.362591 h 17.47304 V 97.642029 Z" /></clipPath></defs><g
     inkscape:label="Layer 1"
     inkscape:groupmode="layer"
     id="layer1"><path
       style="fill:#0800ff;fill-opacity:1;stroke:none;stroke-width:0;stroke-dasharray:none;stroke-opacity:1"
       id="rect10"
       width="164.8421"
       height="103.1579"
       x="7.789474"
       y="38.736843"
       transform="matrix(1.0819123,0,0,1.0819123,-7.6444204,-8.81394)"
       clip-path="url(#clipPath39)"
       inkscape:path-effect="#path-effect39"
       sodipodi:type="rect"
       d="M 7.789474,38.736843 H 172.63158 V 141.89474 H 7.789474 Z" /><rect
       style="display:inline;fill:#22ff00;fill-opacity:1;stroke:none;stroke-width:0;stroke-dasharray:none;stroke-opacity:1"
       id="rect9"
       width="150.10526"
       height="88.421059"
       x="15.157895"
       y="45.894737"
       inkscape:label="rect9"
       sodipodi:insensitive="true"
       transform="matrix(1.0819123,0,0,1.0819123,-7.6444204,-8.81394)" /><text
       xml:space="preserve"
       style="font-style:normal;font-variant:normal;font-weight:normal;font-stretch:normal;font-size:74.6667px;font-family:'Times New Roman';-inkscape-font-specification:'Times New Roman, ';text-align:start;writing-mode:lr-tb;direction:ltr;text-anchor:start;display:inline;fill:#ff0000;fill-opacity:1;stroke:none;stroke-width:0;stroke-dasharray:none;stroke-opacity:1"
       x="15.473416"
       y="114.75752"
       id="text1"
       inkscape:label="text1"
       sodipodi:insensitive="true"
       transform="matrix(1.0819123,0,0,1.0819123,-7.6444204,-8.81394)"><tspan
         id="tspan1"
         x="0"
         y="0"
         sodipodi:role="line"
         style="font-size:74.6667px;stroke:none">BLH</tspan></text></g></svg>
