<?xml version="1.0" encoding="UTF-8" standalone="no"?>
<!-- Created with Inkscape (http://www.inkscape.org/) -->

<svg
   width="180"
   height="180"
   viewBox="0 0 180 180"
   version="1.1"
   id="svg1"
   xml:space="preserve"
   xmlns="http://www.w3.org/2000/svg"
   xmlns:svg="http://www.w3.org/2000/svg"><defs
     id="defs1"><linearGradient
       id="swatch6"><stop
         style="stop-color:#000000;stop-opacity:1;"
         offset="0"
         id="stop6" /></linearGradient><clipPath
       clipPathUnits="userSpaceOnUse"
       id="clipPath39"><g
         id="g39"
         style="display:none"><path
           id="path39"
           style="fill:#ffffff;fill-opacity:1;stroke:none;stroke-width:0;stroke-dasharray:none;stroke-opacity:1"
           d="M 136.20982,29.473885 V 54.104752 H 118.73678 V 29.894509 H 99.368222 V 54.104752 H 80.84272 V 31.367595 H 61.474165 V 54.104752 H 43.999319 V 31.790024 H 24.630764 V 54.104752 H 4.2097466 V 68.842834 H 24.630764 V 82.905752 H 4.2097466 V 97.642029 H 24.630764 V 112.00462 H 4.2097466 V 126.7427 H 24.630764 v 22.73174 H 43.999319 V 126.7427 h 17.474846 v 22.30931 H 80.84272 V 126.7427 h 18.525502 v 20.83623 H 118.73678 V 126.7427 h 17.47304 v 20.4156 h 19.36855 v -20.4156 h 21.47348 V 112.00462 H 155.57837 V 97.642029 h 21.47348 V 82.905752 H 155.57837 V 68.842834 h 21.47348 V 54.104752 H 155.57837 V 29.473885 Z M 43.999319,68.842834 H 61.474165 V 82.905752 H 43.999319 Z m 36.843401,0 H 99.368222 V 82.905752 H 80.84272 Z m 37.89406,0 h 17.47304 V 82.905752 H 118.73678 Z M 43.999319,97.642029 H 61.474165 V 112.00462 H 43.999319 Z m 36.843401,0 H 99.368222 V 112.00462 H 80.84272 Z m 37.89406,0 h 17.47304 v 14.362591 h -17.47304 z" /></g><path
         id="lpe_path-effect39"
         style="display:inline"
         class="powerclip"
         d="M 2.789474,33.736843 H 177.63158 V 146.89474 H 2.789474 Z M 136.20982,29.473885 V 54.104752 H 118.73678 V 29.894509 H 99.368222 V 54.104752 H 80.84272 V 31.367595 H 61.474165 V 54.104752 H 43.999319 V 31.790024 H 24.630764 V 54.104752 H 4.2097466 V 68.842834 H 24.630764 V 82.905752 H 4.2097466 V 97.642029 H 24.630764 V 112.00462 H 4.2097466 V 126.7427 H 24.630764 v 22.73174 H 43.999319 V 126.7427 h 17.474846 v 22.30931 H 80.84272 V 126.7427 h 18.525502 v 20.83623 H 118.73678 V 126.7427 h 17.47304 v 20.4156 h 19.36855 v -20.4156 h 21.47348 V 112.00462 H 155.57837 V 97.642029 h 21.47348 V 82.905752 H 155.57837 V 68.842834 h 21.47348 V 54.104752 H 155.57837 V 29.473885 Z M 43.999319,68.842834 V 82.905752 H 61.474165 V 68.842834 Z m 36.843401,0 V 82.905752 H 99.368222 V 68.842834 Z m 37.89406,0 v 14.062918 h 17.47304 V 68.842834 Z M 43.999319,97.642029 V 112.00462 H 61.474165 V 97.642029 Z m 36.843401,0 V 112.00462 H 99.368222 V 97.642029 Z m 37.89406,0 v 14.362591 h 17.47304 V 97.642029 Z" /></clipPath></defs><g
     id="layer1"><path
       style="fill:#0800ff;fill-opacity:1;stroke:none;stroke-width:0;stroke-dasharray:none;stroke-opacity:1"
       id="rect10"
       width="164.8421"
       height="103.1579"
       x="7.789474"
       y="38.736843"
       transform="matrix(1.0819123,0,0,1.0819123,-7.6444204,-8.81394)"
       clip-path="url(#clipPath39)"
       d="M 7.789474,38.736843 H 172.63158 V 141.89474 H 7.789474 Z" /><rect
       style="display:inline;fill:#22ff00;fill-opacity:1;stroke:none;stroke-width:0;stroke-dasharray:none;stroke-opacity:1"
       id="rect9"
       width="150.10526"
       height="88.421059"
       x="15.157895"
       y="45.894737"
       transform="matrix(1.0819123,0,0,1.0819123,-7.6444204,-8.81394)" /><text
       xml:space="preserve"
       style="font-style:normal;font-variant:normal;font-weight:normal;font-stretch:normal;font-size:74.6667px;font-family:'Times New Roman';-inkscape-font-specification:'Times New Roman, ';text-align:start;writing-mode:lr-tb;direction:ltr;text-anchor:start;display:inline;fill:#ff0000;fill-opacity:1;stroke:none;stroke-width:0;stroke-dasharray:none;stroke-opacity:1"
       x="15.473416"
       y="114.75752"
       id="text1"
       transform="matrix(1.0819123,0,0,1.0819123,-7.6444204,-8.81394)"><tspan
         id="tspan1"
         x="15.473416"
         y="114.75752"
         style="font-size:74.6667px;stroke:none">BLH</tspan></text></g></svg>
